/* XPM */
static char *balancing3[] = {
/* columns rows colors chars-per-pixel */
"39 53 14 1 ",
"  c #331A19",
". c #79390A",
"X c #453C3C",
"o c #5B6731",
"O c #793D4E",
"+ c #585651",
"@ c #CE2038",
"# c #8A0B41",
"$ c #D77E4B",
"% c #C0B10A",
"& c #888C78",
"* c #FFB164",
"= c #DADFC3",
"- c None",
/* pixels */
"---------------------------------------",
"---------------------------------------",
"---------------------------------------",
"---------------------------------------",
"---------------------------------------",
"---------------------------------------",
"---------------------------------------",
"---------------@@@@@@------------------",
"--------------@@@@@@@@-----------------",
"--------------@@@@@@@@@@---------------",
"--------------@@@@##@@@@---------------",
"---------------@@$$$#@@@---------------",
"-----------------$$$$##@@--------------",
"----------------#$XX$##@@--------------",
"---------------#***X$##@@--------------",
"--------------@#****#@@@@--------------",
"-------------@@##***@@@@---------------",
"-------------@@@##OO@@%%---------------",
"--------------@@+%$O&%%&&--------------",
"--------------@++%$&&%&&&--------------",
"---------------+X&$&%%&&&--------------",
"---------------+X&&%%o+&&&-------------",
"---------------+X%%%%o++&&-------------",
"----------------+%%%%oo+&&-------------",
"----------------X%%%%oo++&-------------",
"----------------Xooooo-&&&-------------",
"---------------+XXoooo-&&&-------------",
"---------------$Xoo++&&%&==------------",
"---------------$++++&&&%==*------------",
"-------------$$$+&&&&&&%%**------------",
"-------------$OO&&&&&&&%%****----------",
"------------$OO-&&&&&&&%%%*$$*---------",
"----------------&&&&&&&%%%*------------",
"----------------&&&&&&%%%%-------------",
"---------------+&&&&&&%%%%%------------",
"---------------&&&&&&&%%%%%------------",
"---------------&&&&&&&%%%%%------------",
"---------------&&&&&&&%%%%%------------",
"--------------&&&&&&&&%%%%%%-----------",
"--------------&&&&&&&&%%%%%%-----------",
"--------------&&&&&&&&%%%%%%-----------",
"---------------+&&&&&&%%%%%%-----------",
"---------------o++&&&&%%%%%%-----------",
"---------------oooo%%%%%%%%%-----------",
"--------------ooooo%%%%%%%%%-----------",
"--------------ooooo%%%%%%%%%-----------",
"--------------ooooo%%%%%%%%%-----------",
"---------------ooo%%%%%%%%%------------",
"-----------------OO-%%%-$$-------------",
"-----------------OO-----$$-------------",
"---------------- X --- .X$$ -----------",
"--------------- ..X --X.    -----------",
"---------------     --      -----------"
};
