/* XPM */
static char *balancing8[] = {
/* columns rows colors chars-per-pixel */
"39 53 14 1 ",
"  c #331A19",
". c #79390A",
"X c #453C3C",
"o c #5B6731",
"O c #793D4E",
"+ c #585651",
"@ c #CE2038",
"# c #8A0B41",
"$ c #D77E4B",
"% c #C0B10A",
"& c #888C78",
"* c #FFB164",
"= c #DADFC3",
"- c None",
/* pixels */
"---------------------------------------",
"---------------------------------------",
"---------------------------------------",
"---------------------------------------",
"---------------------------------------",
"---------------------------------------",
"---------------------------------------",
"---------------------------------------",
"---------------@@@---------------------",
"-------------@@@@@@--------------------",
"------------@@@@@@@@@------------------",
"------------@@@##@@@@@@----------------",
"-------------@@$$#@@@@@@---------------",
"--------------$$$$##@@@@---------------",
"-------------@$XX$##@@@@---------------",
"-------------***X$##@@@@@--------------",
"-------------****#@@@@@@@@-------------",
"-------------@***@@@@@@@@@-------------",
"-------------@#OO@@%%@@@@@-------------",
"-------------+%$O&%%&&#@@@-------------",
"-------------+%$&&%&&&#@@--------------",
"------------+%&$&%%&&&-@---------------",
"------------+%&&%%o++&-----------------",
"------------X%%%%%o+&&-----------------",
"------------+%%%%%oo&++----------------",
"-----------++X%%%%oo-++----------------",
"-----------+XXoooo%--+&&---------------",
"-----------+X-o+&&++--&==--------------",
"----------++X-++&&&+%-&=*--------------",
"----------$XX-+&&&&%%%+***-------------",
"-------$$$$+--+&&&&&%%--****-----------",
"-------OOO$---&&&&&&%%--*$$------------",
"-------------&&&&&&&%%%----------------",
"-------------&&&&&&&%%%----------------",
"-------------&&&&&&&&%%----------------",
"------------&&&&&&&&&%%%---------------",
"------------&&&&&&&&&%%%---------------",
"------------&&&&&&&&&%%%%--------------",
"-----------&&&&&&&&&&%%%%--------------",
"-----------&&&&&&&&&+%%%%--------------",
"-----------+&&+&&&&&+%%%%--------------",
"-----------o+&++&&&+%%%%%--------------",
"-----------oo++++%%%%%%%%--------------",
"-----------oooo%%%%%%%%%%--------------",
"-----------oooo%%%%%%%%%%--------------",
"-----------oooo%%%%%%%%%---------------",
"------------ooo%%%%%%%%$$--------------",
"-------------ooo%%%%%--$$  ------------",
"-----------------OO ---$$  ------------",
"-----------------   ---    ------------",
"---------------- X  -- .X -------------",
"--------------- ..X --X.  -------------",
"---------------     --   --------------"
};
