/* XPM */
static char *obstacle[] = {
/* columns rows colors chars-per-pixel */
"64 64 67 1 ",
"  c #2A251E",
". c #352D24",
"X c #3A3127",
"o c #373028",
"O c #3D352A",
"+ c #42372B",
"@ c #453B2D",
"# c #483C2F",
"$ c #463C30",
"% c #483F32",
"& c #4C4235",
"* c #4E4438",
"= c #514537",
"- c #544837",
"; c #514639",
": c #55493A",
"> c #5A4D3D",
", c #5D503E",
"< c #594E41",
"1 c #5E5142",
"2 c #625444",
"3 c #665847",
"4 c #695946",
"5 c #665948",
"6 c #6C5D4A",
"7 c #705F4C",
"8 c #6F604D",
"9 c #73624D",
"0 c #756552",
"q c #786752",
"w c #776855",
"e c #7B6A55",
"r c #776A58",
"t c #7D6E5A",
"y c #7F705C",
"u c #816E57",
"i c #816F59",
"p c #837057",
"a c #84725C",
"s c #8A765C",
"d c #8D795E",
"f c #847561",
"g c #897760",
"h c #8C7A63",
"j c #8F7E69",
"k c #927E64",
"l c #917F68",
"z c #958165",
"x c #988367",
"c c #95826A",
"v c #9B866B",
"b c #9E896E",
"n c #968570",
"m c #998770",
"M c #9D8A71",
"N c #9F8D78",
"B c #A08A6F",
"V c #A28D73",
"C c #A18F79",
"Z c #A59076",
"A c #A69279",
"S c #A9957C",
"D c #AC987F",
"F c #AE9A81",
"G c #B29E85",
"H c #B4A087",
"J c #B6A38B",
/* pixels */
"O33555555545455582555544555548,25582382235582348232233383333555&",
"2VVVafVVVVVVVVVVVZVVVVZVVVVVVZZZVZVVVVVZZZMZZMVVVVz5vVZMZMz9cMzr",
"2mcA62AASAAAAASSAAASASSSSSAAVvvBASSSSSSSSSSSSSASAZMbZVMZMVy2zZMy",
"2vvjcxZCZAAAAAAAAZSSAAZZAZAAZAASASASSSSSSSSSAAAAAZZZZAAZZVVxMccy",
"1i0hfhnVZZZAASAACZZSChcAAASAAASZZSADDDDDSSZZSZSSAAAZZZZZZZm0N88y",
"2w2lFtFFDSDGDDDDGDDDDmcDDDDDDDDDDDDDDDDDDDSDSDDDDDDDSA0mSScmZczf",
"<VkAFftFe:ADGDDGDGDDSACCSSSASSZSSASAAASSASZSSZCSAAAAAV0zc0AZZNVy",
"2BBSFc<ft<SDDDGDDGDDSADSDDDDDDDDDDDDDDDDDGDGDDFFDDDDDDAMOyZAZZZy",
",BBDDxd.X%>>>>,=oO&*;;:<1<<><<,&&*=*::::<:<<>>>>**:*;&&.y*0SAZZy",
"2BBAD-#uO7qusssc:O58wyfjcfffhff8=paayyyzcczyfzgh1rzzyr8@McMSZVAy",
",BBAJs9d:q7sdkssn>>8tfznmjzhnnmtOfzzzmcMCMcyMbcc8zcMcyw$MAZSZMZz",
",BBAHBxd:qpsdkkszN2>wghmNjcMMCNy$zczCSMSGFyrMNMm0mVAMzy&ZZASZZMy",
"2bbADVBd-psddkBBzzc15fjNNnNNNZZz:MVMASCGGGyrNSVNebSSNyy&VASDZVZy",
",BBAHBxd-skkkkkBvzzM<1fmNnNNZZZz8MMVSSAGJGczASVC0VSSVzz$VASDZZZy",
"1bVDHBkd-ssxdskBMbzzN:5hmcVMZZZcwMNVSSAGGHzmAFMC0VSDZyp&VADDAZAa",
",bBDHBxd-ssdk4kkvMczzN*5ngMMNZZMtMVVSSzGHHgmSSMS8VSSVza&VZDDASSy",
"1BBAGVkd@7ppze,zzxBBzzV&8yzcNNZNeVVNSSzHHHcMSSND8VSSCgf%MAGDSZSa",
"1BBAJVBd@,49pz9-zzvBvzzV*1ycMNZAeBVNSScHHHcMSSVD4VDSAga&VADDAVSa",
"1BvAJBBd@4,4zpz4,zzvBvzzM*8ymZZS0VVMCDMHHHcmSDMD8VSSAga%MADGSVAf",
"1BBAJVkd@7q>,zpzq,zzBvzzzn*8zcmS0MMMADSHGJmMSDNSqVDSAga&VADDSVDf",
"4BBDJVBd&4q4-,zdzp4zzvBBzzc>0zzS8VVMASSHHHAMSSMntMSSAhf%VSSFSVDa",
"2BBDJZkd&9te0-:cpszqzzvBbzzc1rym8mMVCSSHHHDMSFMjsbSDAha%VVAFSVDf",
"2BVDJVBdOqztyy1:zszzxzxBMbzzm10c1zMVAASHHGDMSSMcsMSSAgf&BVAFAVSf",
",BBDJBBk&0st,sst.qszvxzxbbvzcC1s5dbVZSAHHJDMSSMMpMSSAha&VVAFlVDf",
"2BBDJZkk#usp&2dv&&zpdvvzzvBBzzZ58acnMSAGHHDVASMAiMFAAha&VVADiZFf",
"2kBDJVBB#uds3ydZ->-psdvvzzBBBxdA88czMZAGHHSVSFMDpmAFSha&VVAFwVFf",
"4BBSJVBk+uds0xBS,9q4esdbxzzvBBzzM8edvNCDHHSMSFMDaMSSAha*VVDVaVSf",
"2kBSJBBB#7dssvVD4esp8edsxxzzbBvzzC15dvxAHHDVFAMFiMSFAha&VVDMjVFf",
"2lBSJBkB+qhdkbZH9ezst3esdxxzxvBBzvb&,fzCGGSNSFMFeVSSAhf&VSDmjZDf",
"4BBSJBBB+qhdkbBH4pbzae>addxxzxvBbzzmO:aVSGSVSSVA9VSSSha*VAScwVSf",
"2BBDJZkk#qshcVZH4pVbzst-xddxxzpvVbzcmoOMVSAMSFMN6VFSAha*VASN1VFf",
"2lBDJBBB#qdkzVZG,pZbcxzq4vdsxxpdbVbzvNo&MVCMAFVV6VSSAha*VDSA:VSf",
"2bbDJBzv+qskBVAD,pFklZkku4kdkkkkzvBBzzZ-&MMVASVN5bSSAhf*ZDSS0VSa",
"2bBDJx9v#qkkkZZD>dSSSlSkku4kkklkzzvVbzdZ5:mMZZMM8vSSAha*VDSSMZDf",
"2vBDJv4x+ekkBBZD-pZlZZSkkp4,kkdlzzzvVbdaSw>tMMVM5MSDAha*ZDSDZVSf",
"2bZDJb9v#edkBBZD>sSSlZFSlkuuukddxxzzbVbzvAr>zMMA8VSSSha*ZSSDAZAa",
"1bZSJBzv@ezzkZVD>plSlHFlFlksuukddxxzxBBBzxSy8bMZ8ZSSSga*ZSSDAVSa",
"2bZDJZvv@ekhBVZD>pHlZFFZFlkkku7kddxxzvBBbzvA68hm4vSSSga*ZSADSZSa",
"2bVDJBvv@qhzBZZG,sSlSFFZHlkllku4xdpxxzbBbbzvM&3y3cSSAgf*ZZSSAZAf",
",bZDJZvx@qhzkVVH4sSSlSFZFSllAkuu>xedxxzbbbmzccXe>zAZAgf&ZZZDAVZy",
"2bZSJZvv+udklZZGuulFlFFlSkkkGSlk&,xdsvxzvbVbzzhO2fnMAga&ZZZSZZVa",
"2bASJZvv+qhklVZH4uSFFFFFGVZVSSlk42,xdsvvzbVbvzxc*8jmAha&VZSSVVZa",
"2bVFJZvv+ukklZZGuullkFFSDkVkZZkV8t3,zzdbxzzbBbzxN65hcft&ZZZSVVVa",
"3bASJBBv+udkBZBH4ulFSGHlGZkVSSZkqas3,zzdbxtsBBbzcSr:ff0$ZZZSZVVf",
"2BZDJVBv#usklllH7pFlkFSlDlBZSAVkqzzs31bzdbbesbBbzbS0<06$ZZASVVZa",
"2BZDJZBx#udkZASH4sSlsFFSSZkDAAZkevmzy31vzdbbtdBBbzcS038$ZZASVVVf",
"2BZDJVxB#ukkkFFH4iFkuFFlSllZASZk0bmmzs58xddzbsbbBB8aZ03@ZZASVZVf",
",BZDJBBx#skkkSlH4ilduFFSSAlZAAZA8mMMbmd58bzsxBbZVVc:tb>.ZZASVVVa",
"2vASJZBB+qkxZZBH4uVl0SFBCVBVAAVS1mMMMMmc93vkszVBBVBk-pB#ZZASVVVs",
"2BADJZBx#qhvBZZD1pZBiVFVFllVSAZS1bMMMMmmb03vksvBBBBVkup2ZZSSVVBs",
"2BZSJZBx#qzzBVVD>pZBaVFVFVBVSAZS1MMMMMcjmm91zkdvBvvBkkd-ZZSSZVZa",
"2BZDGZxB#qkkbBBS%pBBjlFVAVlBASBA1MMMMbcaMMk4>zhszVzzBdp-ZZASVVVa",
"2BZSJZBx&0azzVvV%sBkBBZBVllBZVVZ1cbMmMgrMMzt4=zdskksssp-ZZASVVZa",
"2vZDJZvv&0tpzzzb%pkdkkVxVkhkBlkl,hzmvbtbMMhuu4*kssssppq-VZASZVVa",
"1BVDGVvv+4qttsyz-7sssskdksuskdsd>esapstdckstuq&=sssssp7-VVZSVZVa",
"2vZDJi>v.XO&&&**X##-#---%:%:%:%:X&&**=====&#%+X +------XVp0ZVVVf",
",bZDDq,9vZSDDDDDDDDDDDSSDDSSSSSSDDSSDDDDDDDDDDDDDDDDDDbvratMVVZa",
",bZSDxz,-xvvVBvBxBBvvvBvBxBBBBBxvvBvBxBBBvvBBBBBBBBvvv02h6NAVVVa",
"1bVSDpzzzvvvvvvvBvxBvvBvxBBxxBBBvBvBvBBxBBMVBBVVVVVVVVBzVhaSZVVf",
",00MzzvvbbVBVVVVVVVVBBBBBBVVBBVVBVBVBvxd50exBVBVVVVVZZZZVVkcAa8f",
"1y88zvBVVVVVVVZVZDSSSSSSDDDDSDDDDDSDDAAMihjVDDSDSSSSASSAAAAZAc6f",
"1z11zVBVVZVVVVVVVBVZZVVBVVVZVVVZZZZZZZADSAVCVVZZZZVZZZZZZZZ8taMy",
",1vazxBxBBvvvvBBBBBkBBxBxBBxBxBBvBBZBVZBVVVVVVVVVVVVVVVZVVV6rc0y",
".8eq9q999999999974uu9u9uu99u99999999qqeteeteeteeteeuertreeeqrr6*"
};
